<?xml version="1.0" standalone="no"?>
<!DOCTYPE svg PUBLIC "-//W3C//DTD SVG 20010904//EN"
 "http://www.w3.org/TR/2001/REC-SVG-20010904/DTD/svg10.dtd">
<svg version="1.0" xmlns="http://www.w3.org/2000/svg"
 width="500.000000pt" height="450.000000pt" viewBox="0 0 500.000000 450.000000"
 preserveAspectRatio="xMidYMid meet">

<g transform="translate(0.000000,450.000000) scale(0.100000,-0.100000)"
fill="#000000" stroke="none">
<path d="M273 4290 c-42 -25 -66 -73 -64 -129 1 -26 69 -449 151 -941 82 -492
151 -911 153 -930 16 -137 321 -1953 334 -1982 18 -43 67 -93 106 -107 20 -8
509 -11 1578 -11 l1549 0 35 33 c19 18 39 46 45 62 5 17 102 597 215 1290 113
693 253 1553 311 1910 59 358 106 666 107 685 0 48 -27 97 -66 120 -31 20 -68
20 -2227 20 -2159 0 -2196 0 -2227 -20z m2943 -1387 c-8 -42 -226 -1319 -226
-1326 0 -4 -218 -7 -484 -7 l-484 0 -6 28 c-3 15 -60 313 -126 662 -67 349
-123 643 -126 653 -5 16 34 17 726 17 l732 0 -6 -27z"/>
</g>
</svg>
