<?xml version="1.0" standalone="no"?>
<!DOCTYPE svg PUBLIC "-//W3C//DTD SVG 20010904//EN"
 "http://www.w3.org/TR/2001/REC-SVG-20010904/DTD/svg10.dtd">
<svg version="1.0" xmlns="http://www.w3.org/2000/svg"
 width="1680.000000pt" height="970.000000pt" viewBox="0 0 1680.000000 970.000000"
 preserveAspectRatio="xMidYMid meet">

<g transform="translate(0.000000,970.000000) scale(0.100000,-0.100000)"
fill="#000000" stroke="none">
<path d="M782 9490 c-207 -54 -380 -215 -454 -420 l-23 -65 -3 -4015 c-2
-2950 0 -4031 8 -4075 7 -33 29 -96 49 -140 88 -187 253 -318 454 -359 69 -14
811 -16 7581 -16 6616 0 7513 2 7582 15 153 29 314 130 398 249 60 84 84 135
107 223 19 75 19 151 19 4068 0 3961 0 3992 -20 4070 -22 86 -72 186 -128 254
-83 102 -228 187 -364 215 -70 14 -796 16 -7605 15 -7375 0 -7529 0 -7601 -19z
m7685 -2265 c21 -9 46 -23 57 -33 10 -9 74 -129 141 -267 67 -137 189 -385
270 -550 81 -165 200 -408 265 -540 112 -229 219 -446 575 -1170 86 -176 201
-410 255 -520 54 -110 159 -326 235 -480 76 -154 184 -374 240 -490 56 -115
167 -340 245 -500 133 -271 192 -392 384 -788 42 -87 77 -163 79 -170 1 -7 5
-14 8 -17 4 -3 20 -33 36 -67 20 -43 29 -73 26 -98 -2 -21 1 -35 7 -35 6 0 8
5 5 10 -9 15 11 12 22 -3 6 -6 13 -21 15 -32 3 -11 9 -28 13 -38 6 -15 1 -17
-49 -17 l-56 0 0 40 0 40 -100 0 c-93 0 -100 1 -100 20 0 18 -7 20 -80 20 -73
0 -80 2 -80 20 0 19 -7 20 -240 20 -233 0 -240 1 -240 20 0 18 -7 20 -80 20
-74 0 -80 2 -80 20 0 20 -5 21 -157 20 -320 -3 -323 -2 -323 20 0 18 -7 20
-80 20 -77 0 -86 3 -81 32 2 12 -439 9 -460 -3 -17 -9 -19 -5 -19 41 l0 50
-190 0 c-105 -1 -196 2 -202 6 -6 4 -17 -1 -24 -10 -15 -21 7 -60 -225 404
-452 903 -502 1008 -579 1200 -131 328 -224 711 -267 1095 -23 206 -23 626 0
833 70 628 252 1180 557 1692 91 153 102 166 156 185 51 18 77 18 121 0z
m-1379 -2834 c69 -36 268 -289 403 -513 402 -664 570 -1492 449 -2209 -23
-134 -45 -196 -63 -181 -7 5 -39 10 -72 10 -59 0 -90 -11 -79 -29 3 -5 -2 -6
-11 -3 -14 6 -14 8 2 20 17 14 16 15 -7 13 -14 -1 -98 -1 -187 0 -140 1 -163
3 -163 17 0 13 -21 15 -152 15 -84 0 -220 2 -303 5 -82 2 -160 4 -172 4 -16 0
-20 5 -16 20 5 18 0 20 -36 20 -31 0 -40 -3 -35 -12 6 -10 4 -10 -7 0 -7 6
-24 12 -39 12 -24 -1 -24 -1 -6 -15 11 -8 15 -15 9 -15 -7 0 -18 6 -25 13 -7
6 -39 13 -70 15 -49 2 -57 0 -63 -18 -6 -19 -45 -29 -45 -11 0 5 -23 11 -51
13 -28 3 -55 11 -59 18 -6 9 -38 11 -129 7 -67 -2 -121 -1 -121 4 0 5 7 9 15
9 8 0 15 5 15 11 0 16 -74 6 -82 -11 -5 -13 -7 -12 -7 2 -1 12 -9 16 -30 16
-17 -1 -30 -4 -29 -7 3 -26 -6 -31 -52 -31 -43 0 -50 3 -50 20 0 19 -6 20
-122 18 -67 -1 -116 -4 -110 -6 17 -5 15 -32 -3 -32 -7 0 -19 8 -24 18 -10 16
-10 16 -11 0 0 -10 -7 -18 -15 -18 -14 0 -14 2 0 23 8 13 12 27 8 30 -3 4 -1
7 5 7 7 0 12 6 12 14 0 8 38 92 84 188 46 95 108 225 139 288 51 107 99 206
382 785 59 121 147 301 195 400 48 99 156 320 240 490 84 171 176 360 205 420
49 103 82 147 130 173 32 18 112 14 153 -7z m1698 -2608 c-7 -7 -26 7 -26 19
0 6 6 6 15 -2 9 -7 13 -15 11 -17z m44 17 c0 -5 -2 -10 -4 -10 -3 0 -8 5 -11
10 -3 6 -1 10 4 10 6 0 11 -4 11 -10z m120 -34 c0 -3 -4 -8 -10 -11 -5 -3 -10
-1 -10 4 0 6 5 11 10 11 6 0 10 -2 10 -4z m450 -45 c0 -5 -9 -7 -20 -4 -11 3
-20 7 -20 9 0 2 9 4 20 4 11 0 20 -4 20 -9z m95 -41 c3 -6 -1 -7 -9 -4 -18 7
-21 14 -7 14 6 0 13 -4 16 -10z m457 -52 c-7 -7 -12 -8 -12 -2 0 14 12 26 19
19 2 -3 -1 -11 -7 -17z m-3368 -86 c3 -5 -1 -9 -9 -9 -8 0 -15 4 -15 9 0 4 4
8 9 8 6 0 12 -4 15 -8z m1257 -61 c7 11 9 10 9 -4 0 -20 -22 -19 -26 1 -2 9
-1 9 3 1 4 -8 8 -7 14 2z m33 -7 c3 -8 2 -12 -4 -9 -6 3 -10 10 -10 16 0 14 7
11 14 -7z m-370 -3 c4 -5 -3 -7 -14 -4 -23 6 -26 13 -6 13 8 0 17 -4 20 -9z"/>
</g>
</svg>
