<?xml version="1.0" standalone="no"?>
<!DOCTYPE svg PUBLIC "-//W3C//DTD SVG 20010904//EN"
 "http://www.w3.org/TR/2001/REC-SVG-20010904/DTD/svg10.dtd">
<svg version="1.0" xmlns="http://www.w3.org/2000/svg"
 width="800.000000pt" height="800.000000pt" viewBox="0 0 800.000000 800.000000"
 preserveAspectRatio="xMidYMid meet">

<g transform="translate(0.000000,800.000000) scale(0.100000,-0.100000)"
fill="#000000" stroke="none">
<path d="M973 5160 c-91 -45 -137 -90 -181 -180 -26 -54 -27 -58 -25 -230 0
-96 8 -285 17 -420 8 -135 20 -335 26 -445 6 -110 15 -258 21 -329 5 -72 9
-167 9 -212 0 -45 5 -105 10 -135 33 -173 173 -320 341 -358 28 -7 323 -11
789 -11 798 0 791 0 897 51 110 54 197 183 213 316 5 38 13 160 20 273 6 113
18 302 26 420 8 118 19 298 24 400 5 102 14 269 20 372 10 164 9 196 -5 250
-34 132 -121 221 -264 267 -24 8 -310 11 -945 11 l-911 0 -82 -40z m1930 -171
c42 -22 66 -52 83 -102 15 -45 15 -70 5 -241 -35 -584 -42 -692 -51 -811 -6
-71 -10 -151 -10 -177 l0 -48 -242 0 c-168 -1 -260 -5 -299 -14 -67 -16 -184
-73 -289 -141 -164 -105 -233 -125 -442 -125 -130 0 -163 -6 -191 -35 -26 -25
-22 -91 6 -119 22 -22 35 -24 168 -31 225 -10 352 23 536 141 202 129 220 134
519 134 l214 0 0 -60 0 -60 -183 0 c-258 0 -320 -20 -549 -175 -76 -52 -122
-77 -160 -85 -36 -8 -169 -10 -423 -8 l-370 3 -56 28 c-56 27 -97 71 -117 127
-11 30 -20 131 -32 385 -9 177 -25 451 -51 860 -24 376 -24 417 -1 460 23 46
56 79 92 94 37 15 1814 15 1843 0z m-86 -1903 c-51 -45 -118 -58 -286 -54
l-135 3 41 27 c68 45 124 57 278 57 l140 0 -38 -33z"/>
<path d="M1713 4568 c-219 -218 -233 -235 -233 -269 0 -51 39 -89 92 -89 38 0
48 7 172 130 73 72 134 130 137 130 2 0 3 -156 1 -347 -3 -392 -1 -414 54
-440 42 -20 78 -11 107 30 20 26 21 44 27 397 l5 371 125 -125 c128 -128 152
-146 196 -146 38 0 84 51 84 92 0 30 -21 55 -233 266 -212 212 -236 232 -267
232 -31 0 -55 -20 -267 -232z"/>
<path d="M1209 3775 c-38 -21 -55 -67 -39 -105 21 -51 52 -60 205 -60 102 0
143 4 165 15 69 36 65 117 -7 154 -33 17 -291 14 -324 -4z"/>
<path d="M5066 4685 c-195 -54 -323 -189 -382 -404 -20 -70 -24 -110 -24 -217
0 -72 4 -144 9 -160 5 -16 15 -49 22 -74 22 -76 61 -141 128 -212 234 -250
668 -188 829 119 68 130 95 343 63 508 -41 216 -195 388 -394 441 -65 17 -186
17 -251 -1z m207 -221 c68 -23 120 -85 149 -176 20 -62 23 -94 23 -218 0 -162
-9 -204 -58 -276 -47 -72 -102 -99 -197 -98 -136 1 -207 61 -246 209 -17 64
-17 242 0 320 43 197 174 292 329 239z"/>
<path d="M3616 4643 c3 -16 17 -64 31 -108 14 -44 38 -125 54 -180 16 -55 38
-129 49 -165 24 -77 78 -262 90 -305 16 -58 32 -111 76 -253 24 -79 44 -145
44 -148 0 -2 67 -4 150 -4 l150 0 14 34 c8 19 23 66 34 103 11 37 70 232 132
433 61 201 127 417 146 480 19 63 37 121 39 128 4 10 -25 12 -133 10 l-137 -3
-12 -45 c-6 -25 -30 -117 -53 -205 -23 -88 -54 -209 -70 -270 -16 -60 -35
-132 -43 -160 -8 -27 -22 -80 -32 -117 -9 -38 -21 -68 -25 -68 -5 0 -16 30
-24 68 -9 37 -25 101 -36 142 -11 41 -45 170 -75 285 -29 116 -63 245 -74 287
-12 43 -21 80 -21 83 0 3 -63 5 -140 5 l-140 0 6 -27z"/>
<path d="M5872 4078 l3 -593 338 -3 337 -2 0 115 0 115 -205 0 -205 0 0 480 0
480 -135 0 -135 0 2 -592z"/>
<path d="M6449 4648 c11 -28 75 -164 171 -363 40 -82 97 -202 127 -265 l54
-114 -2 -211 -1 -210 126 -3 126 -3 0 220 0 220 44 88 c84 170 316 654 316
659 0 3 -64 3 -142 2 l-141 -3 -82 -200 c-45 -110 -90 -218 -99 -240 l-18 -40
-20 45 c-11 25 -48 113 -83 195 -35 83 -73 171 -85 198 l-21 47 -139 0 -140 0
9 -22z"/>
</g>
</svg>
