<?xml version="1.0" standalone="no"?>
<!DOCTYPE svg PUBLIC "-//W3C//DTD SVG 20010904//EN"
 "http://www.w3.org/TR/2001/REC-SVG-20010904/DTD/svg10.dtd">
<svg version="1.0" xmlns="http://www.w3.org/2000/svg"
 width="800.000000pt" height="800.000000pt" viewBox="0 0 800.000000 800.000000"
 preserveAspectRatio="xMidYMid meet">
 <rect width="100%" height="100%" fill="#F3F3F3" />

<g transform="translate(0.000000,800.000000) scale(0.100000,-0.100000)"
fill="#F3F3F3" stroke="none">
<path fill="#09324B" d="M3674 5879 c-60 -23 -131 -90 -165 -157 l-24 -47 -3 -486 -3 -486 75
-67 c41 -36 77 -66 80 -66 3 0 6 146 6 325 l0 325 1695 0 1695 0 0 -1001 c0
-1098 3 -1045 -59 -1082 -27 -15 -80 -17 -608 -17 -319 0 -582 -2 -584 -5 -3
-2 0 -39 6 -82 l11 -78 574 -3 c659 -3 644 -4 730 76 37 35 56 62 70 104 19
56 20 89 20 1282 0 1098 -2 1230 -16 1273 -29 87 -110 171 -191 200 -31 10
-341 13 -1648 12 -1572 0 -1611 -1 -1661 -20z m270 -280 c35 -41 34 -83 -3
-120 -50 -49 -121 -37 -147 27 -12 29 -12 39 0 68 17 41 39 55 88 56 28 0 42
-7 62 -31z m340 0 c15 -17 26 -43 26 -59 0 -44 -44 -90 -87 -90 -45 0 -69 14
-89 51 -19 38 -13 67 22 102 39 39 93 37 128 -4z m333 12 c35 -30 45 -66 29
-106 -17 -40 -42 -55 -91 -55 -78 0 -112 86 -59 149 20 24 34 31 62 31 21 -1
47 -9 59 -19z"/>
<path fill="#09324B" d="M1600 5359 c-141 -49 -239 -123 -309 -234 -197 -311 -52 -719 300
-841 76 -27 262 -27 339 0 83 28 130 54 190 105 65 54 70 60 115 129 50 76 77
162 83 265 9 174 -43 312 -161 431 -80 80 -137 116 -234 146 -88 27 -245 27
-323 -1z"/>
<path fill="#09324B" d="M5617 4943 c-3 -5 -26 -78 -51 -163 -26 -85 -56 -180 -66 -210 -10
-30 -30 -95 -45 -145 -15 -49 -45 -144 -66 -210 -21 -66 -58 -185 -83 -265
-24 -80 -51 -164 -59 -187 l-15 -43 99 0 c54 0 100 4 103 9 3 5 24 69 46 142
40 131 102 328 175 559 62 194 155 502 155 511 0 11 -187 12 -193 2z"/>
<path fill="#09324B" d="M5882 4787 l-63 -63 186 -187 c103 -103 185 -192 183 -198 -2 -5 -86
-93 -188 -194 l-185 -185 67 -67 66 -66 259 256 258 256 -255 255 c-140 141
-257 255 -260 256 -3 0 -34 -28 -68 -63z"/>
<path fill="#09324B" d="M4785 4588 l-250 -249 257 -254 256 -253 66 67 66 67 -122 121 c-68
67 -152 151 -188 188 l-65 65 189 189 190 190 -62 60 c-34 34 -67 61 -74 60
-7 0 -125 -113 -263 -251z"/>
<path fill="#09324B" d="M3310 4505 l0 -105 -365 0 -366 0 3 -121 3 -122 360 -1 360 -1 5
-108 5 -109 161 134 c88 73 178 148 200 165 l39 33 -35 33 c-56 53 -358 307
-364 307 -3 0 -6 -47 -6 -105z"/>
<path fill="#09324B" d="M1350 4096 c-194 -47 -350 -137 -471 -272 -107 -119 -149 -248 -149
-453 0 -154 12 -186 81 -221 38 -20 58 -20 963 -18 916 3 925 3 952 24 64 48
69 62 68 217 0 156 -12 211 -67 324 -59 123 -192 253 -322 317 -71 35 -187 72
-268 86 -73 13 -122 10 -232 -14 -88 -20 -221 -20 -305 0 -90 22 -185 25 -250
10z"/>
<path fill="#09324B" d="M3595 3953 c-16 -14 -49 -42 -72 -62 l-43 -36 0 -343 0 -343 24 -48
c34 -66 115 -137 179 -156 35 -10 96 -15 202 -15 l152 0 11 58 c6 31 14 69 18
85 l6 27 -173 0 c-163 0 -175 1 -206 23 -18 12 -37 35 -43 51 -6 18 -10 177
-10 407 0 209 -3 379 -7 379 -5 0 -21 -12 -38 -27z"/>
<path fill="#09324B" d="M4651 3817 c-13 -6 -33 -24 -43 -38 -18 -24 -19 -50 -21 -492 -1
-257 -4 -467 -7 -467 -3 1 -30 37 -60 82 -106 156 -152 194 -216 177 -51 -14
-79 -53 -78 -107 2 -46 16 -77 120 -258 16 -28 74 -131 129 -230 139 -249 215
-323 377 -365 93 -25 306 -26 393 -3 144 37 248 121 309 249 47 98 56 168 56
432 0 222 -1 231 -23 264 -64 95 -188 58 -204 -61 -9 -68 -21 -44 -27 58 -8
118 -24 155 -77 176 -35 14 -43 14 -78 0 -47 -18 -68 -47 -77 -103 -11 -70
-21 -46 -26 62 -5 116 -18 145 -74 172 -45 21 -85 13 -124 -27 -25 -25 -30
-37 -30 -79 0 -36 -4 -49 -14 -49 -12 0 -15 42 -18 263 -3 228 -5 266 -21 294
-30 56 -109 80 -166 50z"/>
</g>
</svg>
