<?xml version="1.0" encoding="UTF-8"?>
<svg version="1.1" xmlns="http://www.w3.org/2000/svg" width="800" height="800">
<path d="M0 0 C264 0 528 0 800 0 C800 264 800 528 800 800 C536 800 272 800 0 800 C0 536 0 272 0 0 Z " fill="#F2F2F2" transform="translate(0,0)"/>
<path d="M0 0 C1.13103407 -0.00445784 2.26206814 -0.00891569 3.42737597 -0.01350862 C5.29169118 -0.01323207 5.29169118 -0.01323207 7.19366932 -0.01294994 C8.52714371 -0.01624991 9.86061711 -0.01997576 11.19408923 -0.02409142 C14.86178775 -0.03410429 18.5294699 -0.03782706 22.19718015 -0.04048073 C26.15165455 -0.04438586 30.10611602 -0.05396401 34.06058216 -0.0626936 C43.61187404 -0.08245136 53.16316697 -0.09252302 62.71447417 -0.10142139 C67.21263445 -0.10580512 71.71079355 -0.11117168 76.2089529 -0.11641026 C91.1620325 -0.1334213 106.11511137 -0.14791569 121.06819916 -0.155159 C124.94814206 -0.15706888 128.82808496 -0.15898921 132.70802784 -0.16094494 C134.15453242 -0.16167055 134.15453242 -0.16167055 135.63025931 -0.16241082 C151.25355603 -0.17071199 166.8767762 -0.19605094 182.50003948 -0.22852562 C198.54073714 -0.26159613 214.5813959 -0.27960772 230.62212783 -0.28280324 C239.6281775 -0.28496826 248.63411551 -0.2937159 257.64013195 -0.31926441 C265.3096162 -0.34097124 272.97896168 -0.3490219 280.64847317 -0.33929763 C284.5605142 -0.33475296 288.47226891 -0.33664867 292.38427067 -0.35605907 C295.9690145 -0.37369186 299.55326316 -0.37269256 303.13801227 -0.35716178 C305.04194649 -0.35366445 306.9458859 -0.3698112 308.84974784 -0.38676625 C315.97838353 -0.33329933 321.24245274 0.62098931 327.47292042 4.13422108 C328.13292042 4.46422108 328.79292042 4.79422108 329.47292042 5.13422108 C329.47292042 5.79422108 329.47292042 6.45422108 329.47292042 7.13422108 C330.30823292 7.41265858 330.30823292 7.41265858 331.16042042 7.69672108 C336.90373794 11.26689143 339.71169796 17.80565218 341.47292042 24.13422108 C341.8824424 27.57391891 341.8828679 30.97622002 341.86060047 34.43727589 C341.86867878 35.95496863 341.86867878 35.95496863 341.87692028 37.50332183 C341.89118203 40.88016927 341.88410033 44.25662372 341.87697315 47.63348866 C341.88267769 50.06014285 341.88964227 52.48679437 341.89777088 54.91344166 C341.91384764 60.81295228 341.91580434 66.71236449 341.91055798 72.61188535 C341.90650941 77.40995219 341.90796798 82.20798762 341.91330624 87.00605297 C341.91405466 87.69008269 341.91480308 88.3741124 341.91557418 89.07887029 C341.91710573 90.46869098 341.91864408 91.85851167 341.92018915 93.24833234 C341.93390494 106.27076187 341.92848338 119.29313126 341.91700394 132.31555941 C341.90707637 144.21255468 341.92000556 156.10939431 341.94393813 168.00636557 C341.96835953 180.23907237 341.97792931 192.47170677 341.9712854 204.70443743 C341.96779942 211.56537888 341.9699838 218.42620074 341.98753643 225.28712368 C342.00384384 231.74110054 341.99902944 238.19485397 341.98023129 244.64882565 C341.97655025 247.01305809 341.97963962 249.3773126 341.99011707 251.7415247 C342.00336168 254.97809426 341.99174777 258.21368701 341.97412586 261.45021534 C341.98373087 262.3776723 341.99333588 263.30512927 342.00323194 264.26069099 C341.90988542 272.63870777 339.99209081 280.76129177 334.22292042 287.07172108 C328.24863497 292.42930609 321.56142091 295.2630714 313.55012989 295.25447559 C312.06519787 295.25653759 312.06519787 295.25653759 310.55026722 295.25864124 C308.93078426 295.25324833 308.93078426 295.25324833 307.27858448 295.24774647 C306.13683262 295.24789249 304.99508076 295.24803852 303.81873035 295.24818897 C300.04198277 295.24749188 296.2652844 295.23970895 292.48854542 295.23187733 C289.87109371 295.23001243 287.25364165 295.22858886 284.63618946 295.22758961 C278.44914469 295.22448262 272.26211761 295.21627774 266.07508063 295.20624012 C259.03038434 295.19505936 251.9856872 295.18956358 244.94098425 295.18454468 C230.45162029 295.17409461 215.96227119 295.15630575 201.47292042 295.13422108 C200.48292042 286.71922108 200.48292042 286.71922108 199.47292042 278.13422108 C200.92760227 278.12835484 202.38228413 278.12248859 203.88104725 278.11644459 C217.58032665 278.05926779 231.27946443 277.98670989 244.97857666 277.89850616 C252.02167928 277.85355301 259.06473138 277.81413732 266.10793018 277.78778553 C272.9031579 277.76234593 279.69815161 277.72143801 286.4932394 277.67103481 C289.08758026 277.65433117 291.68196001 277.64283875 294.27634716 277.63660717 C297.90615821 277.62700441 301.53538996 277.59898959 305.16505909 277.56659412 C306.24111912 277.56802921 307.31717915 277.5694643 308.42584705 277.57094288 C314.95031392 277.48842265 318.72636205 276.88077944 323.47292042 272.13422108 C324.93648404 268.27875495 324.62595494 264.12568014 324.6311388 260.06042957 C324.63606846 259.24227772 324.64099812 258.42412586 324.64607716 257.58118153 C324.66146819 254.82770468 324.66981816 252.07425087 324.67824268 249.32074451 C324.68795728 247.31779368 324.69810271 245.31484489 324.70864487 243.31189823 C324.73571653 237.94186389 324.75688148 232.57182136 324.77683735 227.20175648 C324.7964451 222.16506685 324.82136052 217.12840899 324.84584522 212.09174061 C324.91437928 197.35592464 324.97437666 182.62006998 325.03542042 167.88422108 C325.17979542 134.96672108 325.32417042 102.04922108 325.47292042 68.13422108 C213.60292042 68.13422108 101.73292042 68.13422108 -13.52707958 68.13422108 C-13.52707958 89.58422108 -13.52707958 111.03422108 -13.52707958 133.13422108 C-17.52707958 131.13422108 -17.52707958 131.13422108 -20.52707958 129.13422108 C-20.52707958 128.47422108 -20.52707958 127.81422108 -20.52707958 127.13422108 C-21.08395458 126.90734608 -21.64082958 126.68047108 -22.21457958 126.44672108 C-25.3713432 124.65504443 -27.24339992 122.99374382 -29.52707958 120.13422108 C-30.25937433 117.03015962 -30.2108816 113.99892264 -30.17405224 110.82098866 C-30.18281384 109.89022511 -30.19157543 108.95946156 -30.20060253 108.00049305 C-30.22259149 104.92610377 -30.2080392 101.85315608 -30.19114208 98.77875233 C-30.19451178 96.63508803 -30.19936567 94.4914256 -30.20563793 92.34776783 C-30.21300981 87.85281673 -30.20229852 83.35836244 -30.17893505 78.86346912 C-30.15053355 73.12129476 -30.16679509 67.38029335 -30.19679737 61.63816261 C-30.2149351 57.20867174 -30.20908114 52.77945506 -30.19615841 48.34995556 C-30.19283781 46.23420223 -30.19686376 44.11842348 -30.20855618 42.00269985 C-30.2994711 20.91612856 -30.2994711 20.91612856 -24.52707958 13.13422108 C-23.86707958 12.14422108 -23.20707958 11.15422108 -22.52707958 10.13422108 C-21.86707958 10.13422108 -21.20707958 10.13422108 -20.52707958 10.13422108 C-20.52707958 9.47422108 -20.52707958 8.81422108 -20.52707958 8.13422108 C-19.86707958 8.13422108 -19.20707958 8.13422108 -18.52707958 8.13422108 C-18.52707958 7.47422108 -18.52707958 6.81422108 -18.52707958 6.13422108 C-17.11379829 5.31584666 -15.69629613 4.50475888 -14.27707958 3.69672108 C-13.09372021 3.01802967 -13.09372021 3.01802967 -11.88645458 2.32562733 C-7.88987037 0.30748464 -4.4535329 0.00814599 0 0 Z " fill="#0A3149" transform="translate(377.52707958221436,209.86577892303467)"/>
<path d="M0 0 C12.55513124 3.15757792 25.04035305 1.98637672 37.5234375 -0.8203125 C54.59469274 -4.21893768 74.14349974 1.8952375 88.8125 10.8125 C105.26170112 22.01774527 115.94187222 36.162086 120.9375 55.5 C121.19901855 56.3976709 121.19901855 56.3976709 121.46582031 57.31347656 C122.5177814 62.18995869 122.25231384 67.28190602 122.3125 72.25 C122.36857422 73.9825 122.36857422 73.9825 122.42578125 75.75 C122.48997909 81.99859004 122.12543953 86.616357 118.70166016 91.92285156 C113.9043253 96.21163971 108.36287485 96.9416702 102.1574707 96.88768005 C101.40505506 96.89306559 100.65263941 96.89845113 99.87742329 96.90399987 C97.37253974 96.91823333 94.8681881 96.91118738 92.36328125 96.90405273 C90.56081723 96.90975867 88.75835683 96.91672379 86.9559021 96.92485046 C82.0716526 96.94277081 77.18758287 96.94161577 72.30331039 96.93590808 C68.22269685 96.93281508 64.14211777 96.93890981 60.06150913 96.94494683 C50.43453153 96.9589863 40.80764269 96.95743512 31.18066406 96.94604492 C21.25410478 96.93455971 11.32781555 96.94864749 1.40129185 96.9754414 C-7.12799449 96.99760052 -15.65719606 97.00423542 -24.18650913 96.99836498 C-29.27783744 96.99499528 -34.36899257 96.99741169 -39.46029663 97.01461601 C-44.24731451 97.03008678 -49.03393222 97.0261281 -53.8209343 97.00731087 C-55.57568663 97.00362559 -57.33046863 97.00673169 -59.08519363 97.01719666 C-61.48474601 97.03041272 -63.88297472 97.01885495 -66.2824707 97.00120544 C-67.31862534 97.01561295 -67.31862534 97.01561295 -68.37571239 97.03031152 C-74.75169553 96.93412478 -78.94765184 94.58040438 -83.4609375 90.140625 C-86.02424493 84.31378957 -85.7397975 78.5458446 -85.6875 72.25 C-85.68485138 71.58037231 -85.68220276 70.91074463 -85.67947388 70.2208252 C-85.56156936 54.36136247 -82.51960368 40.80247491 -72.0625 28.5 C-71.46050781 27.76265625 -70.85851562 27.0253125 -70.23828125 26.265625 C-67.14901385 22.59335051 -64.04490268 19.23079041 -60.0625 16.5 C-59.4025 16.5 -58.7425 16.5 -58.0625 16.5 C-58.0625 15.84 -58.0625 15.18 -58.0625 14.5 C-42.06260575 3.33856174 -19.42742308 -5.26004303 0 0 Z " fill="#09314A" transform="translate(158.0625,390.5)"/>
<path d="M0 0 C5.02860031 2.42117793 7.05406728 4.82838648 9 10 C9.40431922 13.99075655 9.34905044 17.95336722 9.29296875 21.9609375 C9.28872391 23.10664215 9.28447906 24.2523468 9.28010559 25.43276978 C9.2633564 29.08042215 9.22570991 32.72751551 9.1875 36.375 C9.17244836 38.85285659 9.15876079 41.33072186 9.14648438 43.80859375 C9.11346512 49.87258552 9.06330259 55.93625281 9 62 C9.99 62 10.98 62 12 62 C12 58.37 12 54.74 12 51 C12.66 51 13.32 51 14 51 C14.33 50.01 14.66 49.02 15 48 C17.25562506 46.08613632 18.96763479 45.03687019 21.96875 44.9296875 C26.02825382 45.30837256 29.07471905 45.95283234 32 49 C32 49.66 32 50.32 32 51 C32.66 51 33.32 51 34 51 C35.0176403 56.01608525 35.11856434 60.78608306 35.0625 65.875 C35.05798828 66.65875 35.05347656 67.4425 35.04882812 68.25 C35.03714093 70.16670014 35.01920908 72.08336048 35 74 C35.66 74 36.32 74 37 74 C36.9175 72.96875 36.835 71.9375 36.75 70.875 C37.0431259 66.33154849 38.10460483 64.45838867 41 61 C43.98791819 58.65234999 47.21601031 58.58778902 50.96484375 58.671875 C54.29176075 59.20826853 56.45375599 60.88848058 59 63 C62.33179616 69.66359232 61.14601944 79.666579 61 87 C61.66 87 62.32 87 63 87 C62.9175 85.96875 62.835 84.9375 62.75 83.875 C63.04513561 79.3003981 64.07472819 77.47870161 67 74 C70.03478528 71.45734206 71.45360417 71 75.4375 71 C79.89393553 72.25092927 81.74376496 73.74376496 85 77 C85.9609666 79.88289979 86.13691867 81.74198972 86.16113281 84.73999023 C86.17074036 85.70206894 86.1803479 86.66414764 86.19024658 87.65538025 C86.1966214 89.21622093 86.1966214 89.21622093 86.203125 90.80859375 C86.20882507 91.88569107 86.21452515 92.96278839 86.22039795 94.07252502 C86.22985332 96.35815448 86.23638406 98.64379759 86.24023438 100.92944336 C86.24987519 104.3926657 86.28086692 107.85527799 86.3125 111.31835938 C86.31903685 113.54426733 86.32428464 115.77017951 86.328125 117.99609375 C86.3404718 119.01843613 86.3528186 120.0407785 86.36553955 121.09410095 C86.32167182 135.57170198 81.87271241 149.67367337 71.7734375 160.32421875 C60.13382017 171.32288799 45.75565964 173.3597475 30.3125 173.375 C29.02666016 173.39949219 27.74082031 173.42398438 26.41601562 173.44921875 C11.79900567 173.4935351 -0.99444826 169.50682461 -12 159.6875 C-17.93601863 153.37308975 -21.8163819 145.5202715 -26 138 C-27.14374689 135.96570464 -28.28832112 133.93187428 -29.43359375 131.8984375 C-32.42705079 126.57444134 -35.40505193 121.2419747 -38.37841797 115.90673828 C-40.61854687 111.89123471 -42.86984094 107.88207683 -45.125 103.875 C-45.46668213 103.26712646 -45.80836426 102.65925293 -46.16040039 102.03295898 C-48.10389022 98.57160738 -48.10389022 98.57160738 -50.11254883 95.14794922 C-52.7071634 90.79083568 -53.66204313 88.10718988 -53 83 C-51.1040948 78.47089312 -48.34608359 76.21565046 -44 74 C-39.94136872 73.73530666 -37.49894914 75.09249374 -34.375 77.5 C-30.14877632 81.45824292 -27.0072941 86.04641763 -23.7265625 90.78125 C-23.17395752 91.57176758 -22.62135254 92.36228516 -22.05200195 93.17675781 C-20.69764866 95.11531323 -19.34711914 97.05641389 -18 99 C-18.00079559 97.87548935 -18.00159119 96.7509787 -18.00241089 95.59239197 C-18.00601649 84.98401666 -17.97817895 74.37612538 -17.9197216 63.76790524 C-17.89067527 58.31431122 -17.87262732 52.86114683 -17.87988281 47.4074707 C-17.88648019 42.14220682 -17.86396713 36.8777916 -17.82144547 31.61270332 C-17.81032162 29.60614608 -17.80960756 27.59950269 -17.81957626 25.59293938 C-17.83177016 22.77708814 -17.80663078 19.96381887 -17.77294922 17.14819336 C-17.78517014 16.32244308 -17.79739105 15.49669281 -17.8099823 14.6459198 C-17.69145612 9.13074514 -16.27437964 6.30876662 -12.4806385 2.30729008 C-8.84843241 -0.89966893 -4.60063945 -0.54990808 0 0 Z " fill="#0B324A" transform="translate(475,417)"/>
<path d="M0 0 C6.04089497 3.26827908 11.43588487 6.81911256 16 12 C16.61359375 12.61101562 17.2271875 13.22203125 17.859375 13.8515625 C28.99038147 25.35918197 32.43463759 39.22489688 32.36352539 54.75610352 C32.08426213 67.5339492 27.46010203 80.73946462 18.3125 90 C17.1678125 90.99 17.1678125 90.99 16 92 C15.278125 92.763125 14.55625 93.52625 13.8125 94.3125 C12 96 12 96 10 96 C10 96.66 10 97.32 10 98 C-3.07155222 107.79684185 -18.86686937 109.48854709 -34.72265625 107.69140625 C-43.84318428 105.87373488 -51.52205839 101.36181282 -59 96 C-59.74636719 95.48566406 -60.49273437 94.97132813 -61.26171875 94.44140625 C-61.83535156 93.96574219 -62.40898437 93.49007812 -63 93 C-63 92.34 -63 91.68 -63 91 C-63.66 91 -64.32 91 -65 91 C-70.20289097 84.97500721 -74.27460969 78.46519954 -77 71 C-77.29777344 70.27941406 -77.59554687 69.55882812 -77.90234375 68.81640625 C-82.86840622 55.24555352 -80.61698704 39.07597779 -74.71484375 26.1953125 C-60.34440475 0.49664444 -27.57947949 -13.17343853 0 0 Z " fill="#0A314A" transform="translate(200,266)"/>
<path d="M0 0 C4.88498841 3.6637413 9.19297253 6.95345107 13.5625 11.0625 C16.65993064 13.93129022 19.69916516 16.62030599 23.1875 19 C24.115625 19.66 25.04375 20.32 26 21 C26 21.66 26 22.32 26 23 C26.5775 23.268125 27.155 23.53625 27.75 23.8125 C30.05550043 25.02929189 32.02056192 26.30333879 34 28 C34 28.66 34 29.32 34 30 C34.61875 30.2475 35.2375 30.495 35.875 30.75 C38.35068687 32.20628639 38.95125002 33.37812506 40 36 C38.515 36.495 38.515 36.495 37 37 C37 37.66 37 38.32 37 39 C35.07387389 40.59705441 33.14132889 42.08713739 31.125 43.5625 C26.91104414 46.71611122 22.86743534 49.91975046 19 53.5 C15.12645184 57.06723793 11.10777038 60.35389853 6.9375 63.5625 C6.36451172 64.00464844 5.79152344 64.44679688 5.20117188 64.90234375 C1.13179862 68 1.13179862 68 0 68 C0 60.74 0 53.48 0 46 C-23.76 46 -47.52 46 -72 46 C-72 38.08 -72 30.16 -72 22 C-48.24 22 -24.48 22 0 22 C0 14.74 0 7.48 0 0 Z " fill="#0A3048" transform="translate(331,338)"/>
<path d="M0 0 C6.27 0 12.54 0 19 0 C17.49793321 9.16260743 14.62820642 17.79568946 11.77148438 26.60449219 C10.63151099 30.14418171 9.53561233 33.69715457 8.4375 37.25 C6.88524376 42.25507084 5.2535415 47.22747064 3.5625 52.1875 C1.28824735 58.95357875 -0.68691827 65.78230984 -2.62207031 72.65209961 C-4.56800398 79.54177345 -6.60209629 86.40128171 -8.6875 93.25 C-9.11554932 94.65958984 -9.11554932 94.65958984 -9.55224609 96.09765625 C-11.08346539 101.10794197 -12.67350624 106.09267851 -14.34594727 111.05761719 C-14.87853717 112.63928396 -15.39822 114.2252923 -15.9140625 115.8125 C-16.14867187 116.534375 -16.38328125 117.25625 -16.625 118 C-16.86476563 118.7425 -17.10453125 119.485 -17.3515625 120.25 C-18 122 -18 122 -19 123 C-20.4887186 123.08669432 -21.981445 123.10703494 -23.47265625 123.09765625 C-24.37177734 123.09443359 -25.27089844 123.09121094 -26.19726562 123.08789062 C-27.61555664 123.07532227 -27.61555664 123.07532227 -29.0625 123.0625 C-30.01189453 123.05798828 -30.96128906 123.05347656 -31.93945312 123.04882812 C-34.29303065 123.0370011 -36.64648477 123.02052025 -39 123 C-36.40013379 114.1893423 -33.6288969 105.43512355 -30.85009766 96.6796875 C-29.97536787 93.9223543 -29.10287088 91.16432044 -28.23046875 88.40625 C-25.6725356 80.33238143 -23.10720957 72.2667654 -20.375 64.25 C-18.31065532 58.1244282 -16.57022261 51.94560451 -14.87890625 45.71020508 C-12.86964957 38.37057366 -10.48096173 31.19306613 -8 24 C-6.00674104 18.20709115 -4.26282608 12.41886142 -2.74609375 6.48046875 C-2 4 -2 4 0 0 Z " fill="#0C3149" transform="translate(562,305)"/>
<path d="M0 0 C0.99 0.33 1.98 0.66 3 1 C3 1.66 3 2.32 3 3 C3.56543518 3.24110001 4.13087036 3.48220001 4.71343994 3.73060608 C7.46561306 5.25848715 9.35158147 7.08993979 11.58496094 9.31030273 C12.48559265 10.20140244 13.38622437 11.09250214 14.31414795 12.01060486 C15.2878867 12.98460496 16.26128778 13.95894273 17.234375 14.93359375 C18.23734941 15.93268018 19.24054686 16.93154275 20.24395752 17.93019104 C22.34200344 20.02078628 24.43614557 22.11520098 26.52783203 24.2121582 C29.2118036 26.9019399 31.90700339 29.58015044 34.60543442 32.25541592 C36.67809334 34.31336708 38.74380952 36.37817764 40.80756378 38.44505501 C41.79881592 39.435793 42.79244081 40.42416279 43.78844452 41.41012383 C45.17697125 42.78635434 46.55506457 44.17308766 47.93261719 45.56030273 C48.71997253 46.34702866 49.50732788 47.13375458 50.31854248 47.94432068 C52 50 52 50 52 53 C50.54814148 54.5295105 50.54814148 54.5295105 48.5300293 56.16357422 C43.94388575 60.00956237 39.73488846 64.13767124 35.51953125 68.3828125 C34.74365158 69.16010712 33.96777191 69.93740173 33.16838074 70.73825073 C30.71403844 73.19813896 28.26320918 75.66149275 25.8125 78.125 C24.15713455 79.78538908 22.5015376 81.44554741 20.84570312 83.10546875 C17.81082218 86.14847831 14.77725622 89.19278487 11.74536133 92.23876953 C10.76945541 93.2113974 10.76945541 93.2113974 9.77383423 94.20367432 C8.67122089 95.32026832 7.58577648 96.45444048 6.52865601 97.61419678 C5.24487305 99.00732422 5.24487305 99.00732422 3 101 C-1 101 -1 101 -3.796875 98.59375 C-4.79160961 97.57248913 -5.77570689 96.5407803 -6.75 95.5 C-7.25660156 94.97535156 -7.76320313 94.45070313 -8.28515625 93.91015625 C-9.53265087 92.61558637 -10.76757307 91.3089224 -12 90 C-10.6238464 86.90820864 -9.04841555 84.80361247 -6.65185547 82.42480469 C-5.63102371 81.40419952 -5.63102371 81.40419952 -4.58956909 80.36297607 C-3.85618317 79.63991272 -3.12279724 78.91684937 -2.3671875 78.171875 C-1.61535187 77.42286926 -0.86351624 76.67386353 -0.08889771 75.90216064 C2.31107901 73.5133698 4.71792009 71.13163103 7.125 68.75 C8.75436352 67.13066831 10.38327534 65.51088198 12.01171875 63.890625 C16.00258806 59.92179495 19.99911415 55.95873101 24 52 C23.690625 51.401875 23.38125 50.80375 23.0625 50.1875 C22 48 22 48 21 45 C20.01 44.67 19.02 44.34 18 44 C18 43.34 18 42.68 18 42 C17.34 42 16.68 42 16 42 C14.375 40.625 14.375 40.625 13 39 C13 38.34 13 37.68 13 37 C12.34 37 11.68 37 11 37 C8.375 34.625 8.375 34.625 6 32 C6 31.34 6 30.68 6 30 C5.34 30 4.68 30 4 30 C4 29.34 4 28.68 4 28 C3.34 28 2.68 28 2 28 C0.44921875 26.42578125 0.44921875 26.42578125 -1.3125 24.3125 C-3.41764196 21.83018677 -5.50685217 19.49314783 -7.8125 17.1875 C-10 15 -10 15 -12 12 C-8.04 8.04 -4.08 4.08 0 0 Z " fill="#0D3249" transform="translate(594,315)"/>
<path d="M0 0 C1.32 0 2.64 0 4 0 C4 0.66 4 1.32 4 2 C4.639375 2.268125 5.27875 2.53625 5.9375 2.8125 C8 4 8 4 9 7 C11.00016466 8.20882096 11.00016466 8.20882096 13 9 C13 9.66 13 10.32 13 11 C13.66 11 14.32 11 15 11 C13.6238464 14.09179136 12.04841555 16.19638753 9.65185547 18.57519531 C8.97130096 19.25559875 8.29074646 19.9360022 7.58956909 20.63702393 C6.85618317 21.36008728 6.12279724 22.08315063 5.3671875 22.828125 C4.61535187 23.57713074 3.86351624 24.32613647 3.08889771 25.09783936 C0.68892099 27.4866302 -1.71792009 29.86836897 -4.125 32.25 C-5.75436352 33.86933169 -7.38327534 35.48911802 -9.01171875 37.109375 C-13.00258806 41.07820505 -16.99911415 45.04126899 -21 49 C-19.6238464 52.09179136 -18.04841555 54.19638753 -15.65185547 56.57519531 C-14.97130096 57.25559875 -14.29074646 57.9360022 -13.58956909 58.63702393 C-12.85618317 59.36008728 -12.12279724 60.08315063 -11.3671875 60.828125 C-10.23943405 61.95163361 -10.23943405 61.95163361 -9.08889771 63.09783936 C-6.68892099 65.4866302 -4.28207991 67.86836897 -1.875 70.25 C-0.24563648 71.86933169 1.38327534 73.48911802 3.01171875 75.109375 C7.00258806 79.07820505 10.99911415 83.04126899 15 87 C14.03668137 88.1244006 13.07328818 89.24873732 12.10986328 90.37304688 C11.57338165 90.9991687 11.03690002 91.62529053 10.48416138 92.27038574 C8.08632777 95.06477674 5.78602762 97.57736729 3 100 C0.8203125 99.65625 0.8203125 99.65625 -1 99 C-1 98.34 -1 97.68 -1 97 C-1.66 97 -2.32 97 -3 97 C-3 96.34 -3 95.68 -3 95 C-3.66 95 -4.32 95 -5 95 C-5 94.34 -5 93.68 -5 93 C-5.66 93 -6.32 93 -7 93 C-7 92.34 -7 91.68 -7 91 C-7.99 90.67 -8.98 90.34 -10 90 C-10 89.34 -10 88.68 -10 88 C-11.32 87.34 -12.64 86.68 -14 86 C-14 85.34 -14 84.68 -14 84 C-14.598125 83.731875 -15.19625 83.46375 -15.8125 83.1875 C-17.99847854 82.00082594 -19.41332594 80.90400887 -21 79 C-21 78.34 -21 77.68 -21 77 C-21.54366211 76.78230957 -22.08732422 76.56461914 -22.64746094 76.34033203 C-25.79135918 74.54913222 -28.12947667 72.11723419 -30.640625 69.5546875 C-31.16767029 69.02481232 -31.69471558 68.49493713 -32.23773193 67.94900513 C-33.91325675 66.26232175 -35.58167722 64.56880436 -37.25 62.875 C-38.38755851 61.72740612 -39.52557436 60.58026539 -40.6640625 59.43359375 C-43.44803465 56.62761863 -46.2256576 53.81549536 -49 51 C-47.43622501 47.67697814 -45.78646849 45.43815993 -43 43 C-42.34 43 -41.68 43 -41 43 C-41 42.34 -41 41.68 -41 41 C-40.34 41 -39.68 41 -39 41 C-38.34 39.68 -37.68 38.36 -37 37 C-36.34 37 -35.68 37 -35 37 C-34.67 36.01 -34.34 35.02 -34 34 C-33.34 34 -32.68 34 -32 34 C-31.34 32.68 -30.68 31.36 -30 30 C-29.34 30 -28.68 30 -28 30 C-27.67 29.01 -27.34 28.02 -27 27 C-26.34 27 -25.68 27 -25 27 C-24.61328125 26.12601562 -24.61328125 26.12601562 -24.21875 25.234375 C-22.90165983 22.8197097 -21.44911616 21.18259823 -19.5 19.25 C-18.58734375 18.32960938 -18.58734375 18.32960938 -17.65625 17.390625 C-16 16 -16 16 -14 16 C-13.34 14.68 -12.68 13.36 -12 12 C-11.34 12 -10.68 12 -10 12 C-9.79375 11.46375 -9.5875 10.9275 -9.375 10.375 C-7.46749574 7.08021991 -4.95180616 4.40636372 -2 2 C-1.34 2 -0.68 2 0 2 C0 1.34 0 0.68 0 0 Z " fill="#0D324A" transform="translate(503,316)"/>
<path d="M0 0 C0.00879936 1.43033821 0.00879936 1.43033821 0.01777649 2.88957214 C0.07501083 11.87974383 0.14777614 20.8696738 0.23571491 29.85959911 C0.28042607 34.48133282 0.31968055 39.10297822 0.34643555 43.72485352 C0.3724611 48.18595208 0.41285817 52.64671098 0.46318626 57.10759926 C0.47986005 58.80877772 0.49137115 60.51001494 0.49761391 62.21126366 C0.50724957 64.59587514 0.53530134 66.97961666 0.56762695 69.36401367 C0.56547432 70.4170594 0.56547432 70.4170594 0.5632782 71.49137878 C0.66496687 76.80173266 2.07052438 79.96062816 5.68457031 83.78051758 C9.04822072 85.55207323 12.33080716 85.47984306 16.046875 85.51171875 C17.20367767 85.53864555 17.20367767 85.53864555 18.3838501 85.56611633 C20.83917832 85.62015769 23.29431286 85.6540942 25.75 85.6875 C27.41799566 85.72067864 29.08596579 85.75516882 30.75390625 85.79101562 C34.83596438 85.87834324 38.91714611 85.9384601 43 86 C42.34 91.61 41.68 97.22 41 103 C36.32165965 103.09238632 31.64654713 103.17184477 26.96801758 103.21972656 C25.38034274 103.23970745 23.79274021 103.26690203 22.20532227 103.30175781 C9.89283328 103.56512656 1.12921832 102.56951713 -8.20703125 93.94140625 C-13.35416783 88.36814507 -16.08522009 83.06881979 -16.33569336 75.53759766 C-16.35832748 74.87383118 -16.38096161 74.2100647 -16.40428162 73.52618408 C-16.60205 67.37790895 -16.7170974 61.22758499 -16.80750179 55.07688332 C-16.86914635 50.94985347 -16.95731005 46.82734797 -17.11108398 42.70263672 C-18.16293398 13.80233596 -18.16293398 13.80233596 -12.88720703 7.09667969 C-9.47023655 3.7655144 -4.97782088 0 0 0 Z " fill="#0C3149" transform="translate(364,402)"/>
<path d="M0 0 C3.18845573 0.27174339 4.2010566 0.82153773 7 2.6875 C9.21925086 6.01637629 9.75890933 7.82686508 9.4765625 11.75 C8.60276841 15.30247432 6.9838283 16.69828114 4 18.6875 C1.16123251 19.38574523 -1.16196242 19.39128755 -4 18.6875 C-7 16.625 -7 16.625 -9 13.6875 C-9.82563373 9.14651447 -9.32543335 7.24683858 -7 3.25 C-3.47228916 0.23674699 -3.47228916 0.23674699 0 0 Z " fill="#ECF0F1" transform="translate(456,236.3125)"/>
<path d="M0 0 C2.0078125 0.4453125 2.0078125 0.4453125 5.0078125 3.0703125 C7.18598673 6.74598151 7.80594237 8.27730095 7.0078125 12.4453125 C5.20787476 15.14521912 3.9240395 16.987199 1.0078125 18.4453125 C-3.38485712 18.94259585 -5.29269925 18.97753182 -8.8671875 16.2578125 C-11.0566664 13.35997277 -11.9921875 12.05027315 -11.9921875 8.4453125 C-9.54359853 2.20141063 -6.94025787 -0.17926865 0 0 Z " fill="#EAEEF1" transform="translate(389.9921875,236.5546875)"/>
<path d="M0 0 C2.75329021 1.79562405 4.52627461 3.05254922 6 6 C6.43023798 9.87214182 6.31669086 11.52496371 4.125 14.8125 C1.42055063 17.59649199 0.57733296 17.93464155 -3.3125 18.375 C-7 18 -7 18 -9.9375 16 C-12.23092162 12.66411401 -12.75815509 10.90015906 -12.48046875 6.9375 C-10.87278432 0.45447986 -5.98096831 -0.96122705 0 0 Z " fill="#EEF0F2" transform="translate(425,237)"/>
<path d="M0 0 C29.04 0 58.08 0 88 0 C88 0.33 88 0.66 88 1 C59.95 1 31.9 1 3 1 C2.14730728 4.41077087 1.85131102 6.94841162 1.79467773 10.41113281 C1.77473251 11.49195129 1.75478729 12.57276978 1.73423767 13.68634033 C1.71752518 14.84687927 1.70081268 16.00741821 1.68359375 17.203125 C1.66281265 18.39605164 1.64203156 19.58897827 1.62062073 20.8180542 C1.55523761 24.62864423 1.49629224 28.43930314 1.4375 32.25 C1.39430411 34.83334046 1.35068948 37.41667395 1.30664062 40 C1.19956766 46.33326052 1.09778028 52.66658956 1 59 C0.67 59 0.34 59 0 59 C0 39.53 0 20.06 0 0 Z " fill="#EEFBFE" transform="translate(364,279)"/>
<path d="M0 0 C0.33 0 0.66 0 1 0 C1 26.4 1 52.8 1 80 C-0.32 78.68 -1.64 77.36 -3 76 C-2.01 75.505 -2.01 75.505 -1 75 C-1.00222061 74.08989166 -1.00444122 73.17978333 -1.00672913 72.24209595 C-1.0267409 63.67792405 -1.04197868 55.11375996 -1.05181217 46.54957008 C-1.05703755 42.14631785 -1.06412897 37.74308489 -1.07543945 33.33984375 C-1.08628054 29.09290756 -1.09227944 24.84598994 -1.09487724 20.59904099 C-1.09672928 18.97627851 -1.10034568 17.35351708 -1.10573006 15.73076248 C-1.11295668 13.46322661 -1.11399025 11.19576813 -1.11352539 8.92822266 C-1.115746 7.63582672 -1.11796661 6.34343079 -1.12025452 5.01187134 C-1 2 -1 2 0 0 Z " fill="#E2EAEB" transform="translate(457,437)"/>
<path d="M0 0 C2.64 1.98 5.28 3.96 8 6 C5 7 5 7 2 6 C2 10.95 2 15.9 2 21 C1.34 21.33 0.68 21.66 0 22 C0 14.74 0 7.48 0 0 Z " fill="#293D4D" transform="translate(331,338)"/>
<path d="M0 0 C0.66 0 1.32 0 2 0 C2.03738281 1.05960937 2.07476562 2.11921875 2.11328125 3.2109375 C2.17893258 4.59899424 2.24538021 5.98701349 2.3125 7.375 C2.33505859 8.07367188 2.35761719 8.77234375 2.38085938 9.4921875 C2.46984296 11.77288941 2.46984296 11.77288941 3 15 C3.99 15.66 4.98 16.32 6 17 C4.02 18.32 2.04 19.64 0 21 C0 14.07 0 7.14 0 0 Z " fill="#263C4D" transform="translate(331,385)"/>
<path d="M0 0 C-1.37660239 4.95576859 -3.74620855 6.33095439 -8 9 C-9.70328319 10.6292274 -11.38161281 12.28641357 -13 14 C-13.66 13.67 -14.32 13.34 -15 13 C-13.4451236 8.96472554 -10.82178919 6.92491445 -7.5 4.25 C-6.5203125 3.45078125 -5.540625 2.6515625 -4.53125 1.828125 C-2 0 -2 0 0 0 Z " fill="#1B3144" transform="translate(364,402)"/>
<path d="M0 0 C0.99 0 1.98 0 3 0 C1.41332422 3.90285767 -1.13350481 6.33520982 -4.125 9.25 C-5.03507813 10.14203125 -5.94515625 11.0340625 -6.8828125 11.953125 C-7.58148437 12.62859375 -8.28015625 13.3040625 -9 14 C-9.66 13.34 -10.32 12.68 -11 12 C-10.01 11.67 -9.02 11.34 -8 11 C-7.67 9.35 -7.34 7.7 -7 6 C-6.01 6.33 -5.02 6.66 -4 7 C-4 5.68 -4 4.36 -4 3 C-3.01 2.67 -2.02 2.34 -1 2 C-0.67 1.34 -0.34 0.68 0 0 Z " fill="#213A4C" transform="translate(611,397)"/>
<path d="M0 0 C0.33 0.66 0.66 1.32 1 2 C-1.97 1.67 -4.94 1.34 -8 1 C-8.66 2.65 -9.32 4.3 -10 6 C-10.99 5.67 -11.98 5.34 -13 5 C-13 5.66 -13 6.32 -13 7 C-13.66 6.67 -14.32 6.34 -15 6 C-10.35954848 -0.29775564 -7.83954275 -1.77499081 0 0 Z " fill="#1B3244" transform="translate(554,489)"/>
<path d="M0 0 C0.66 0.99 1.32 1.98 2 3 C1.34 3.66 0.68 4.32 0 5 C-0.99 5 -1.98 5 -3 5 C-3.28875 5.78375 -3.5775 6.5675 -3.875 7.375 C-5 10 -5 10 -7 12 C-9.125 11.625 -9.125 11.625 -11 11 C-10.34 11 -9.68 11 -9 11 C-8.34 9.68 -7.68 8.36 -7 7 C-6.34 7 -5.68 7 -5 7 C-4.67 6.01 -4.34 5.02 -4 4 C-3.34 4 -2.68 4 -2 4 C-1.34 2.68 -0.68 1.36 0 0 Z " fill="#1F394B" transform="translate(473,346)"/>
<path d="M0 0 C0.99 0.33 1.98 0.66 3 1 C-0.46902655 6.82300885 -0.46902655 6.82300885 -3.0625 7.6875 C-3.701875 7.790625 -4.34125 7.89375 -5 8 C-6.73026102 9.47890069 -6.73026102 9.47890069 -8 11 C-8.66 10.67 -9.32 10.34 -10 10 C-6.7 6.7 -3.4 3.4 0 0 Z " fill="#DCE6EA" transform="translate(641,371)"/>
<path d="M0 0 C0.33 0.66 0.66 1.32 1 2 C1.66 2.33 2.32 2.66 3 3 C2.195625 3.33 1.39125 3.66 0.5625 4 C-2.12410424 5.68921133 -2.12410424 5.68921133 -2.5546875 7.98046875 C-2.7881295 9.97887376 -2.90116895 11.99043533 -3 14 C-3.66 14 -4.32 14 -5 14 C-5.29557392 8.97524332 -5.0282379 6.07647409 -2 2 C-1.34 1.34 -0.68 0.68 0 0 Z " fill="#2C4353" transform="translate(427,493)"/>
<path d="M0 0 C0.33 0.66 0.66 1.32 1 2 C-0.07229283 5.13439441 -1.47657021 8.06195683 -3 11 C-3.99 10.01 -4.98 9.02 -6 8 C-4.55746343 4.63408134 -2.66735273 2.48952921 0 0 Z " fill="#23374A" transform="translate(588,397)"/>
<path d="M0 0 C0.66 0 1.32 0 2 0 C2.33 2.31 2.66 4.62 3 7 C1.35 7.66 -0.3 8.32 -2 9 C-1.34 6.03 -0.68 3.06 0 0 Z " fill="#E3E5EE" transform="translate(557,382)"/>
<path d="M0 0 C0.66 0.33 1.32 0.66 2 1 C-0.05127045 4.9945793 -1.88912162 7.10267152 -6 9 C-6.66 8.67 -7.32 8.34 -8 8 C-5.36 5.36 -2.72 2.72 0 0 Z " fill="#273E4F" transform="translate(486,333)"/>
<path d="M0 0 C0.33 0 0.66 0 1 0 C0.67 2.31 0.34 4.62 0 7 C-5.41538462 8.23076923 -5.41538462 8.23076923 -8.375 7.0625 C-8.91125 6.711875 -9.4475 6.36125 -10 6 C-8.3603125 5.62875 -8.3603125 5.62875 -6.6875 5.25 C-2.89397463 3.9640592 -1.98571906 3.30953177 0 0 Z " fill="#263E52" transform="translate(430,249)"/>
<path d="M0 0 C0.66 0.33 1.32 0.66 2 1 C0.549046 4.82524236 -1.38181932 6.19090966 -5 8 C-5.66 8 -6.32 8 -7 8 C-7 7.34 -7 6.68 -7 6 C-6.38125 5.9175 -5.7625 5.835 -5.125 5.75 C-2.82618538 5.19392091 -2.82618538 5.19392091 -1.8125 3 C-1.544375 2.34 -1.27625 1.68 -1 1 C-0.67 0.67 -0.34 0.34 0 0 Z " fill="#E5ECF2" transform="translate(278,479)"/>
<path d="M0 0 C0.66 0 1.32 0 2 0 C0.49776416 4.20626034 -2.28550034 5.73900021 -6 8 C-6.33 7.34 -6.66 6.68 -7 6 C-5.75 4 -5.75 4 -4 2 C-2.68 2 -1.36 2 0 2 C0 1.34 0 0.68 0 0 Z " fill="#183142" transform="translate(353,385)"/>
<path d="M0 0 C0.556875 0.226875 1.11375 0.45375 1.6875 0.6875 C-0.3125 3.6875 -0.3125 3.6875 -3.4375 4.375 C-4.38625 4.478125 -5.335 4.58125 -6.3125 4.6875 C-6.6425 4.0275 -6.9725 3.3675 -7.3125 2.6875 C-2.88173077 -0.38942308 -2.88173077 -0.38942308 0 0 Z " fill="#1B374B" transform="translate(112.3125,399.3125)"/>
<path d="M0 0 C0.33 0 0.66 0 1 0 C1 5.61 1 11.22 1 17 C-0.32 15.68 -1.64 14.36 -3 13 C-2.34 12.67 -1.68 12.34 -1 12 C-0.53101037 9.1840151 -0.53101037 9.1840151 -0.375 5.9375 C-0.30023438 4.83277344 -0.22546875 3.72804688 -0.1484375 2.58984375 C-0.09945313 1.73519531 -0.05046875 0.88054687 0 0 Z " fill="#D4DEE5" transform="translate(457,500)"/>
<path d="M0 0 C0.33 0 0.66 0 1 0 C1.25328119 5.06562383 0.33583899 9.15758367 -1 14 C-1.33 14 -1.66 14 -2 14 C-2.3690205 4.58997722 -2.3690205 4.58997722 0 0 Z " fill="#2F4755" transform="translate(75,442)"/>
<path d="M0 0 C0.33 0.99 0.66 1.98 1 3 C-0.45017921 5.59505753 -1.34638817 6.77590452 -4.1875 7.75 C-4.785625 7.8325 -5.38375 7.915 -6 8 C-4.55746343 4.63408134 -2.66735273 2.48952921 0 0 Z " fill="#0C2B3E" transform="translate(91,414)"/>
<path d="M0 0 C0 2 0 4 0 6 C-1.98 6.66 -3.96 7.32 -6 8 C-6.33 7.34 -6.66 6.68 -7 6 C-4.69 4.02 -2.38 2.04 0 0 Z " fill="#DDE8EB" transform="translate(350,390)"/>
<path d="M0 0 C-1.28519565 2.86697492 -2.57129254 4.97607712 -5 7 C-5.66 7 -6.32 7 -7 7 C-6.61402985 4.20171644 -6.19863427 3.1794116 -4.0625 1.25 C-2 0 -2 0 0 0 Z " fill="#183141" transform="translate(626,385)"/>
<path d="M0 0 C0.66 0.33 1.32 0.66 2 1 C0.1875 3.5 0.1875 3.5 -2 6 C-2.99 6 -3.98 6 -5 6 C-5.33 6.99 -5.66 7.98 -6 9 C-6.66 8.34 -7.32 7.68 -8 7 C-7.34 7 -6.68 7 -6 7 C-6 6.34 -6 5.68 -6 5 C-4.04072937 3.2856382 -2.04119788 1.61594832 0 0 Z " fill="#D2DFE5" transform="translate(216,357)"/>
<path d="M0 0 C2.9375 0.875 2.9375 0.875 4.3125 2.9375 C4.51875 3.576875 4.725 4.21625 4.9375 4.875 C3.9475 4.875 2.9575 4.875 1.9375 4.875 C1.2775 4.215 0.6175 3.555 -0.0625 2.875 C-2.05071313 2.47735737 -4.05194339 2.13724651 -6.0625 1.875 C-3.0625 -0.125 -3.0625 -0.125 0 0 Z " fill="#21364D" transform="translate(392.0625,235.125)"/>
<path d="M0 0 C2.40072955 2.88087546 4.47291037 5.56404834 6 9 C5.01 9.495 5.01 9.495 4 10 C3.896875 9.360625 3.79375 8.72125 3.6875 8.0625 C3.3471875 7.0415625 3.3471875 7.0415625 3 6 C2.01 5.67 1.02 5.34 0 5 C-0.33 4.01 -0.66 3.02 -1 2 C-0.67 1.34 -0.34 0.68 0 0 Z " fill="#20394E" transform="translate(265,418)"/>
<path d="M0 0 C0.99 0 1.98 0 3 0 C2.7452486 1.31571603 2.47065859 2.62760376 2.1875 3.9375 C2.03667969 4.66839844 1.88585937 5.39929688 1.73046875 6.15234375 C1.48941406 6.76207031 1.24835937 7.37179687 1 8 C0.01 8.33 -0.98 8.66 -2 9 C-1.34 6.03 -0.68 3.06 0 0 Z " fill="#0D2938" transform="translate(530,406)"/>
<path d="M0 0 C0.99 0.66 1.98 1.32 3 2 C-0.08888522 4.05925681 -0.70935927 4.2390374 -4.1875 4.125 C-6.0746875 4.063125 -6.0746875 4.063125 -8 4 C-5.48528134 1.48528134 -3.43183318 0.84044894 0 0 Z " fill="#D9DFE2" transform="translate(460,251)"/>
<path d="M0 0 C0.33 0.66 0.66 1.32 1 2 C1.66 2.33 2.32 2.66 3 3 C1.25 4.5625 1.25 4.5625 -1 6 C-3.25 5.6875 -3.25 5.6875 -5 5 C-3.35 3.35 -1.7 1.7 0 0 Z " fill="#D5DCE1" transform="translate(517,404)"/>
<path d="M0 0 C0.99 0.33 1.98 0.66 3 1 C2.67 1.66 2.34 2.32 2 3 C1.34 3 0.68 3 0 3 C0 3.66 0 4.32 0 5 C-1.65 5.33 -3.3 5.66 -5 6 C-3.35 4.02 -1.7 2.04 0 0 Z " fill="#293F4F" transform="translate(500,319)"/>
<path d="M0 0 C0.33 0.66 0.66 1.32 1 2 C0.67 2.99 0.34 3.98 0 5 C-0.66 5 -1.32 5 -2 5 C-2 5.66 -2 6.32 -2 7 C-3.32 6.67 -4.64 6.34 -6 6 C-4.02 4.02 -2.04 2.04 0 0 Z " fill="#233F4F" transform="translate(596,389)"/>
<path d="M0 0 C0.33 0.99 0.66 1.98 1 3 C-0.65 4.65 -2.3 6.3 -4 8 C-4.66 7.34 -5.32 6.68 -6 6 C-4.02 4.02 -2.04 2.04 0 0 Z " fill="#193245" transform="translate(138,276)"/>
<path d="M0 0 C2.64 0 5.28 0 8 0 C7.34 2.31 6.68 4.62 6 7 C5.67 7 5.34 7 5 7 C5 5.02 5 3.04 5 1 C3.35 1 1.7 1 0 1 C0 0.67 0 0.34 0 0 Z " fill="#0C273C" transform="translate(399,489)"/>
<path d="M0 0 C0.66 0.33 1.32 0.66 2 1 C1.67 2.65 1.34 4.3 1 6 C0.01 6.33 -0.98 6.66 -2 7 C-1.125 2.25 -1.125 2.25 0 0 Z " fill="#DAE2E8" transform="translate(718,484)"/>
<path d="M0 0 C0.99 0.66 1.98 1.32 3 2 C2.67 3.32 2.34 4.64 2 6 C1.34 5.67 0.68 5.34 0 5 C0 4.34 0 3.68 0 3 C-0.99 2.67 -1.98 2.34 -3 2 C-2.01 1.34 -1.02 0.68 0 0 Z " fill="#E3E9ED" transform="translate(357,356)"/>
<path d="M0 0 C2.31 0 4.62 0 7 0 C7.33 0.99 7.66 1.98 8 3 C5.69 3 3.38 3 1 3 C0.67 2.01 0.34 1.02 0 0 Z " fill="#072636" transform="translate(521,476)"/>
<path d="M0 0 C0.99 0 1.98 0 3 0 C2.34 2.97 1.68 5.94 1 9 C-1.08954032 4.82091936 -1.16552619 4.19589427 0 0 Z " fill="#2B404F" transform="translate(568,339)"/>
<path d="M0 0 C0.33 0.66 0.66 1.32 1 2 C-0.25 4.625 -0.25 4.625 -2 7 C-2.99 7 -3.98 7 -5 7 C-4.34 5.68 -3.68 4.36 -3 3 C-2.34 3 -1.68 3 -1 3 C-0.67 2.01 -0.34 1.02 0 0 Z " fill="#233D4C" transform="translate(494,325)"/>
<path d="M0 0 C0.99 0.33 1.98 0.66 3 1 C2.34 2.32 1.68 3.64 1 5 C0.01 5 -0.98 5 -2 5 C-1.34 3.35 -0.68 1.7 0 0 Z " fill="#152A37" transform="translate(515,326)"/>
<path d="M0 0 C0.66 0 1.32 0 2 0 C1.6875 1.875 1.6875 1.875 1 4 C0.01 4.66 -0.98 5.32 -2 6 C-2 2 -2 2 0 0 Z " fill="#152F3E" transform="translate(589,320)"/>
<path d="M0 0 C0 2.64 0 5.28 0 8 C-1.5 6.75 -1.5 6.75 -3 5 C-3 3.68 -3 2.36 -3 1 C-1 0 -1 0 0 0 Z " fill="#052639" transform="translate(447,242)"/>
</svg>
